<svg xmlns="http://www.w3.org/2000/svg" xmlns:xlink="http://www.w3.org/1999/xlink" version="1.1" width="256" height="256" viewBox="0 0 256 256" xml:space="preserve">

<defs>
</defs>
<g style="stroke: none; stroke-width: 0; stroke-dasharray: none; stroke-linecap: butt; stroke-linejoin: miter; stroke-miterlimit: 10; fill: none; fill-rule: nonzero; opacity: 1;" transform="translate(1.4065934065934016 1.4065934065934016) scale(2.81 2.81)" >
	<circle cx="46.745999999999995" cy="33.796" r="22.836" style="stroke: none; stroke-width: 1; stroke-dasharray: none; stroke-linecap: butt; stroke-linejoin: miter; stroke-miterlimit: 10; fill: rgb(255,209,93); fill-rule: nonzero; opacity: 1;" transform="  matrix(1 0 0 1 0 0) "/>
	<path d="M 45 0 C 25.463 0 9.625 15.838 9.625 35.375 c 0 8.722 3.171 16.693 8.404 22.86 L 45 90 l 26.97 -31.765 c 5.233 -6.167 8.404 -14.139 8.404 -22.86 C 80.375 15.838 64.537 0 45 0 z M 59.338 51.138 c -1.092 0.764 -2.61 0.497 -3.374 -0.595 l -8.806 -12.576 c -5.346 2.366 -11.789 0.71 -15.268 -4.26 c -3.955 -5.649 -2.583 -13.435 3.066 -17.39 c 5.649 -3.955 13.435 -2.583 17.39 3.066 c 3.48 4.969 2.832 11.59 -1.219 15.804 l 8.805 12.576 C 60.698 48.855 60.43 50.374 59.338 51.138 z" style="stroke: none; stroke-width: 1; stroke-dasharray: none; stroke-linecap: butt; stroke-linejoin: miter; stroke-miterlimit: 10; fill: rgb(243,112,91); fill-rule: nonzero; opacity: 1;" transform=" matrix(1 0 0 1 0 0) " stroke-linecap="round" />
	<path d="M 45 2 c 18.403 0 33.375 14.972 33.375 33.375 c 0 7.881 -2.816 15.54 -7.929 21.566 L 45 86.91 L 19.555 56.941 c -5.113 -6.026 -7.929 -13.685 -7.929 -21.567 C 11.625 16.972 26.597 2 45 2 M 42.124 41.03 c 1.467 0 2.902 -0.217 4.284 -0.647 l 7.918 11.308 c 0.826 1.179 2.182 1.884 3.628 1.884 c 0.911 0 1.786 -0.276 2.531 -0.797 c 0.965 -0.676 1.61 -1.69 1.816 -2.855 c 0.205 -1.165 -0.054 -2.339 -0.73 -3.304 l -7.918 -11.308 c 3.762 -4.948 3.968 -11.878 0.332 -17.072 c -2.709 -3.869 -7.149 -6.179 -11.877 -6.178 c -2.98 0 -5.849 0.906 -8.298 2.621 c -3.17 2.219 -5.285 5.54 -5.957 9.351 c -0.672 3.811 0.18 7.655 2.4 10.825 C 32.959 38.721 37.398 41.03 42.124 41.03 M 45 0 C 25.463 0 9.625 15.838 9.625 35.375 c 0 8.722 3.171 16.693 8.404 22.86 L 45 90 l 26.97 -31.765 c 5.233 -6.167 8.404 -14.139 8.404 -22.86 C 80.375 15.838 64.537 0 45 0 L 45 0 z M 42.124 39.03 c -3.935 0 -7.806 -1.854 -10.234 -5.322 c -3.955 -5.649 -2.583 -13.435 3.066 -17.39 c 2.18 -1.526 4.678 -2.259 7.151 -2.259 c 3.936 0 7.81 1.856 10.239 5.326 c 3.48 4.969 2.832 11.59 -1.219 15.804 l 8.805 12.576 c 0.764 1.091 0.497 2.61 -0.595 3.374 c -0.421 0.294 -0.904 0.436 -1.384 0.436 c -0.765 0 -1.52 -0.36 -1.99 -1.031 l -8.806 -12.576 C 45.543 38.682 43.828 39.03 42.124 39.03 L 42.124 39.03 z" style="stroke: none; stroke-width: 1; stroke-dasharray: none; stroke-linecap: butt; stroke-linejoin: miter; stroke-miterlimit: 10; fill: rgb(243,112,91); fill-rule: nonzero; opacity: 1;" transform=" matrix(1 0 0 1 0 0) " stroke-linecap="round" />
</g>
</svg>